<svg width="286" height="50" viewBox="0 0 286 50" fill="none" xmlns="http://www.w3.org/2000/svg">
<path d="M80.175 16.45V19.875H75.525V34H71.25V19.875H66.6V16.45H80.175ZM97.9705 26.8C97.9705 27.2 97.9455 27.6167 97.8955 28.05H88.2205C88.2872 28.9167 88.5622 29.5833 89.0455 30.05C89.5455 30.5 90.1538 30.725 90.8705 30.725C91.9372 30.725 92.6788 30.275 93.0955 29.375H97.6455C97.4122 30.2917 96.9872 31.1167 96.3705 31.85C95.7705 32.5833 95.0122 33.1583 94.0955 33.575C93.1788 33.9917 92.1538 34.2 91.0205 34.2C89.6538 34.2 88.4372 33.9083 87.3705 33.325C86.3038 32.7417 85.4705 31.9083 84.8705 30.825C84.2705 29.7417 83.9705 28.475 83.9705 27.025C83.9705 25.575 84.2622 24.3083 84.8455 23.225C85.4455 22.1417 86.2788 21.3083 87.3455 20.725C88.4122 20.1417 89.6372 19.85 91.0205 19.85C92.3705 19.85 93.5705 20.1333 94.6205 20.7C95.6705 21.2667 96.4872 22.075 97.0705 23.125C97.6705 24.175 97.9705 25.4 97.9705 26.8ZM93.5955 25.675C93.5955 24.9417 93.3455 24.3583 92.8455 23.925C92.3455 23.4917 91.7205 23.275 90.9705 23.275C90.2538 23.275 89.6455 23.4833 89.1455 23.9C88.6622 24.3167 88.3622 24.9083 88.2455 25.675H93.5955ZM108.401 34.2C107.184 34.2 106.101 33.9917 105.151 33.575C104.201 33.1583 103.451 32.5917 102.901 31.875C102.351 31.1417 102.042 30.325 101.976 29.425H106.201C106.251 29.9083 106.476 30.3 106.876 30.6C107.276 30.9 107.767 31.05 108.351 31.05C108.884 31.05 109.292 30.95 109.576 30.75C109.876 30.5333 110.026 30.2583 110.026 29.925C110.026 29.525 109.817 29.2333 109.401 29.05C108.984 28.85 108.309 28.6333 107.376 28.4C106.376 28.1667 105.542 27.925 104.876 27.675C104.209 27.4083 103.634 27 103.151 26.45C102.667 25.8833 102.426 25.125 102.426 24.175C102.426 23.375 102.642 22.65 103.076 22C103.526 21.3333 104.176 20.8083 105.026 20.425C105.892 20.0417 106.917 19.85 108.101 19.85C109.851 19.85 111.226 20.2833 112.226 21.15C113.242 22.0167 113.826 23.1667 113.976 24.6H110.026C109.959 24.1167 109.742 23.7333 109.376 23.45C109.026 23.1667 108.559 23.025 107.976 23.025C107.476 23.025 107.092 23.125 106.826 23.325C106.559 23.5083 106.426 23.7667 106.426 24.1C106.426 24.5 106.634 24.8 107.051 25C107.484 25.2 108.151 25.4 109.051 25.6C110.084 25.8667 110.926 26.1333 111.576 26.4C112.226 26.65 112.792 27.0667 113.276 27.65C113.776 28.2167 114.034 28.9833 114.051 29.95C114.051 30.7667 113.817 31.5 113.351 32.15C112.901 32.7833 112.242 33.2833 111.376 33.65C110.526 34.0167 109.534 34.2 108.401 34.2ZM126.941 30.375V34H124.766C123.216 34 122.008 33.625 121.141 32.875C120.275 32.1083 119.841 30.8667 119.841 29.15V23.6H118.141V20.05H119.841V16.65H124.116V20.05H126.916V23.6H124.116V29.2C124.116 29.6167 124.216 29.9167 124.416 30.1C124.616 30.2833 124.95 30.375 125.416 30.375H126.941ZM142.747 30.9H136.197L135.147 34H130.672L137.022 16.45H141.972L148.322 34H143.797L142.747 30.9ZM141.647 27.6L139.472 21.175L137.322 27.6H141.647ZM161.255 19.9C162.888 19.9 164.188 20.4333 165.155 21.5C166.138 22.55 166.63 24 166.63 25.85V34H162.38V26.425C162.38 25.4917 162.138 24.7667 161.655 24.25C161.172 23.7333 160.522 23.475 159.705 23.475C158.888 23.475 158.238 23.7333 157.755 24.25C157.272 24.7667 157.03 25.4917 157.03 26.425V34H152.755V20.05H157.03V21.9C157.463 21.2833 158.047 20.8 158.78 20.45C159.513 20.0833 160.338 19.9 161.255 19.9ZM171.251 27C171.251 25.5667 171.517 24.3083 172.051 23.225C172.601 22.1417 173.342 21.3083 174.276 20.725C175.209 20.1417 176.251 19.85 177.401 19.85C178.384 19.85 179.242 20.05 179.976 20.45C180.726 20.85 181.301 21.375 181.701 22.025V20.05H185.976V34H181.701V32.025C181.284 32.675 180.701 33.2 179.951 33.6C179.217 34 178.359 34.2 177.376 34.2C176.242 34.2 175.209 33.9083 174.276 33.325C173.342 32.725 172.601 31.8833 172.051 30.8C171.517 29.7 171.251 28.4333 171.251 27ZM181.701 27.025C181.701 25.9583 181.401 25.1167 180.801 24.5C180.217 23.8833 179.501 23.575 178.651 23.575C177.801 23.575 177.076 23.8833 176.476 24.5C175.892 25.1 175.601 25.9333 175.601 27C175.601 28.0667 175.892 28.9167 176.476 29.55C177.076 30.1667 177.801 30.475 178.651 30.475C179.501 30.475 180.217 30.1667 180.801 29.55C181.401 28.9333 181.701 28.0917 181.701 27.025ZM195.844 15.5V34H191.569V15.5H195.844ZM203.592 18.6C202.842 18.6 202.225 18.3833 201.742 17.95C201.275 17.5 201.042 16.95 201.042 16.3C201.042 15.6333 201.275 15.0833 201.742 14.65C202.225 14.2 202.842 13.975 203.592 13.975C204.325 13.975 204.925 14.2 205.392 14.65C205.875 15.0833 206.117 15.6333 206.117 16.3C206.117 16.95 205.875 17.5 205.392 17.95C204.925 18.3833 204.325 18.6 203.592 18.6ZM205.717 20.05V34H201.442V20.05H205.717ZM215.315 30.475H221.365V34H210.54V30.6L216.34 23.575H210.59V20.05H221.24V23.45L215.315 30.475ZM225.367 27C225.367 25.5667 225.634 24.3083 226.167 23.225C226.717 22.1417 227.459 21.3083 228.392 20.725C229.325 20.1417 230.367 19.85 231.517 19.85C232.5 19.85 233.359 20.05 234.092 20.45C234.842 20.85 235.417 21.375 235.817 22.025V20.05H240.092V34H235.817V32.025C235.4 32.675 234.817 33.2 234.067 33.6C233.334 34 232.475 34.2 231.492 34.2C230.359 34.2 229.325 33.9083 228.392 33.325C227.459 32.725 226.717 31.8833 226.167 30.8C225.634 29.7 225.367 28.4333 225.367 27ZM235.817 27.025C235.817 25.9583 235.517 25.1167 234.917 24.5C234.334 23.8833 233.617 23.575 232.767 23.575C231.917 23.575 231.192 23.8833 230.592 24.5C230.009 25.1 229.717 25.9333 229.717 27C229.717 28.0667 230.009 28.9167 230.592 29.55C231.192 30.1667 231.917 30.475 232.767 30.475C233.617 30.475 234.334 30.1667 234.917 29.55C235.517 28.9333 235.817 28.0917 235.817 27.025ZM253.46 30.375V34H251.285C249.735 34 248.526 33.625 247.66 32.875C246.793 32.1083 246.36 30.8667 246.36 29.15V23.6H244.66V20.05H246.36V16.65H250.635V20.05H253.435V23.6H250.635V29.2C250.635 29.6167 250.735 29.9167 250.935 30.1C251.135 30.2833 251.468 30.375 251.935 30.375H253.46ZM264.691 34.2C263.324 34.2 262.091 33.9083 260.991 33.325C259.908 32.7417 259.049 31.9083 258.416 30.825C257.799 29.7417 257.491 28.475 257.491 27.025C257.491 25.5917 257.808 24.3333 258.441 23.25C259.074 22.15 259.941 21.3083 261.041 20.725C262.141 20.1417 263.374 19.85 264.741 19.85C266.108 19.85 267.341 20.1417 268.441 20.725C269.541 21.3083 270.408 22.15 271.041 23.25C271.674 24.3333 271.991 25.5917 271.991 27.025C271.991 28.4583 271.666 29.725 271.016 30.825C270.383 31.9083 269.508 32.7417 268.391 33.325C267.291 33.9083 266.058 34.2 264.691 34.2ZM264.691 30.5C265.508 30.5 266.199 30.2 266.766 29.6C267.349 29 267.641 28.1417 267.641 27.025C267.641 25.9083 267.358 25.05 266.791 24.45C266.241 23.85 265.558 23.55 264.741 23.55C263.908 23.55 263.216 23.85 262.666 24.45C262.116 25.0333 261.841 25.8917 261.841 27.025C261.841 28.1417 262.108 29 262.641 29.6C263.191 30.2 263.874 30.5 264.691 30.5ZM281.034 22.375C281.534 21.6083 282.159 21.0083 282.909 20.575C283.659 20.125 284.492 19.9 285.409 19.9V24.425H284.234C283.167 24.425 282.367 24.6583 281.834 25.125C281.301 25.575 281.034 26.375 281.034 27.525V34H276.759V20.05H281.034V22.375Z" fill="#14B8A6"/>
<path d="M0 0H50V50H0V0Z" fill="#14B8A6"/>
<path d="M15.2539 11.5625V40H9.41406V11.5625H15.2539ZM24.0039 11.5625V16.1523H0.800781V11.5625H24.0039ZM36.7969 16.4258L29.0625 40H22.832L33.3984 11.5625H37.3633L36.7969 16.4258ZM43.2227 40L35.4688 16.4258L34.8438 11.5625H38.8477L49.4727 40H43.2227ZM42.8711 29.4141V34.0039H27.8516V29.4141H42.8711Z" fill="#F8FAFC"/>
</svg>
